P2
13 16
255
 255 255 255  85  85  85  85  85  85 255 255 255 255  
 255 255  85  85  85  85  85  85  85  85  85  85 255  
 255 255 127 127 127 170 170 170   0 170 255 255 255  
 255 127 170 127 170 170 170 170   0 170 170 170 255  
 255 127 170 127 127 170 170 170 170   0 170 170 170  
 255 255 255 170 170 170 170 170   0   0   0   0 255  
 255 255 255 170 170 170 170 170 170 170 170 255 255  
 255 255  85  85  43  85  85  85  85 255 255 255 255  
 255  85  85  85  43  85  85  43  85  85  85 255 255  
  85  85  85  85  43  43  43  43  85  85  85  85 255  
 170 170  85  43 212  43  43 212  43  85 170 170 255  
 170 170 170  43  43  43  43  43  43 170 170 170 255  
 170 170  43  43  43  43  43  43  43  43 170 170 255  
 255 255  43  43  43 255 255  43  43  43 255 255 255  
 255 127 127 127 255 255 255 255 127 127 127 255 255  
 127 127 127 127 255 255 255 255 127 127 127 127 255  